<svg xmlns="http://www.w3.org/2000/svg" width="48" height="48" fill="none"><path fill="#794CFF" d="M0 17.96c0-3.7 0-5.55.788-6.933a6 6 0 0 1 2.24-2.239C4.408 8 6.258 8 9.96 8h20.08c3.7 0 5.55 0 6.933.788a6.001 6.001 0 0 1 2.239 2.24C40 12.408 40 14.258 40 17.96v12.08c0 3.7 0 5.55-.788 6.933a6.001 6.001 0 0 1-2.24 2.239C35.592 40 33.742 40 30.04 40H9.96c-3.7 0-5.55 0-6.933-.788a6 6 0 0 1-2.239-2.24C0 35.592 0 33.742 0 30.04V17.96Z"/><path fill="#2BEE6C" d="M6 4.946C6 3.72 7.39 3.01 8.382 3.732l18.506 13.46a1 1 0 0 1 0 1.617L8.382 32.267C7.391 32.988 6 32.28 6 31.054V4.946Z"/><path fill="#fff" d="M21.263 21.291a1 1 0 0 1 0 1.618l-8.087 5.88c-1.322.962-3.176.018-3.176-1.617V17.027c0-1.634 1.854-2.578 3.176-1.617l8.087 5.881ZM20 29a1 1 0 0 1 1-1h12a1 1 0 0 1 1 1v2a1 1 0 0 1-1 1H21a1 1 0 0 1-1-1v-2Z"/></svg>
