<svg xmlns="http://www.w3.org/2000/svg" width="300" height="203" fill="none"><path fill="#F5503D" fill-rule="evenodd" d="M184.281 18.562c-.615 6.843-5.532 11.596-13.645 11.596-8.065 0-13.431-4.896-14.072-13.473-1.185.013-2.383.035-3.593.067L149.75 29.42h-8.646l-2.567-11.88c-1.714.143-3.447.305-5.197.486l-2.849 11.394h-8.441l-2.428-9.601c-4.626.73-9.352 1.603-14.163 2.636a2 2 0 0 1-.84-3.91 265.9 265.9 0 0 1 14.019-2.62L114.798.738h6.924l3.178 14.267c1.223-.165 2.438-.32 3.645-.466L131.843.738h8.687l2.743 12.445c1.465-.093 2.916-.173 4.35-.24L150.405.738h6.638l-3.048 11.988c.883-.019 1.76-.033 2.631-.042C157.553 4.692 163.488 0 171.046 0c7.212 0 12.456 4.057 13.112 11.186h-6.597c-.451-3.483-2.663-5.86-6.556-5.86-3.966 0-6.997 2.649-7.708 7.375 12.443.2 23.284 1.332 32.002 2.828a2 2 0 1 1-.676 3.942c-8.525-1.462-19.161-2.573-31.392-2.77.557 5.14 3.556 8.13 7.651 8.13 3.852 0 6.474-2.54 6.966-6.27h6.433Zm-58.51.362c.598-.08 1.194-.158 1.788-.233a81.51 81.51 0 0 0-.919 4.747 80.851 80.851 0 0 0-.869-4.514Zm11.914-5.326c-1.098.094-2.202.195-3.314.304l.955-3.822c.287-1.065.533-2.213.861-4.016.18 1.321.382 2.29.558 3.133.064.308.125.598.179.883l.761 3.518Zm6.738 4.8-.278-1.262c.857-.052 1.709-.1 2.555-.143l-.31 1.364c-.41 1.721-.656 3.073-.943 5.081-.292-1.717-.584-3.043-.905-4.5l-.119-.54ZM32.587 64.959l-.97 3.881h-8.44l-.659-2.602a983.48 983.48 0 0 0-9.377 1.286c-.912.13-1.748-.58-1.866-1.585-.117-1.005.527-1.925 1.44-2.055 2.969-.421 5.935-.829 8.899-1.223l-5.69-22.503h6.925l3.933 17.66c.306 1.394.556 2.563.82 4.067l.335-.042c.261-1.485.509-2.644.812-4.025l4.22-17.66h8.687l3.893 17.66.118.54c.103.467.203.92.301 1.378l1.145-.123c.118-.596.249-1.19.403-1.836l4.015-17.62h6.638l-4.783 18.81c1.686-.17 3.372-.333 5.057-.493 1.453-1.07 3.475-1.612 5.66-1.885l2.868-.328c1.598-.205 2.13-.738 2.13-1.64 0-1.228-1.024-2.294-2.909-2.294-2.008 0-3.319 1.107-3.524 2.95h-6.023c.328-4.179 3.893-7.211 9.342-7.211 6.31 0 8.892 3.278 8.892 8.932v.059a986.4 986.4 0 0 1 2.854-.218V40.158h5.942V56.41c1.145-.079 2.291-.156 3.437-.23V40.157h5.941v15.651c.962-.057 1.925-.113 2.886-.167 1.155-4.656 4.94-7.576 9.96-7.576 4.813 0 8.076 2.526 9.354 6.67 2.016-.075 4.033-.144 6.049-.207v-1.136h-4.344v-4.63h4.344v-7.13h5.9v7.13h4.835v4.63h-4.835v.968c2.454-.062 4.907-.116 7.36-.161 1.616-3.942 5.367-6.134 9.802-6.134 4.96 0 8.08 2.433 9.319 5.96 1.503 0 3.006.003 4.509.01 1.594-3.774 5.136-5.97 9.613-5.97 4.61 0 8.219 2.297 9.76 6.23 1.051.024 2.102.05 3.154.076v-5.61h5.941v.779c0 .533-.041 1.106-.164 1.844 1.024-1.803 2.95-3.32 6.105-3.32 4.187 0 6.673 2.744 7.041 6.952 1.201.051 2.401.104 3.602.16v-6.414h5.942v.778c0 .533-.041 1.106-.164 1.844 1.024-1.803 2.95-3.32 6.105-3.32 4.548 0 7.089 3.238 7.089 8.073v.068l2.545.162c.927-5.076 4.839-8.302 10.115-8.302 5.919 0 9.494 3.82 9.915 9.772.818.066 1.636.134 2.453.203.339-6.334 4.917-9.975 10.634-9.975 6.105 0 9.424 3.688 9.875 8.564h-5.942c-.163-2.09-1.393-3.893-3.892-3.893-2.489 0-4.585 1.967-4.669 5.822 6.772.602 13.553 1.261 20.348 1.976v-7.142h-4.344v-4.63h4.344v-7.13h5.9v7.13h4.835v4.63h-4.835v7.777c2.581.283 5.164.575 7.748.875.916.106 1.58 1.009 1.483 2.016-.096 1.008-.916 1.74-1.832 1.633-1.005-.116-2.01-.232-3.015-.346v3.533c-.573.164-1.844.369-3.155.369-3.968 0-6.28-1.685-6.935-5.008-2.182-.23-4.363-.455-6.543-.674-1.353 3.729-4.557 6.01-9.658 6.01-5.396 0-9.069-2.891-10.083-7.835a1194 1194 0 0 0-16.926-1.306c.14 2.701 1.95 4.634 4.417 4.634 1.885 0 3.442-1.025 3.729-2.869h5.982c-.409 4.18-4.056 7.376-9.711 7.376-5.684 0-9.892-3.384-10.397-9.544l-2.386-.152v8.958h-5.942v-9.316c-2.363-.136-4.726-.264-7.088-.386v9.702h-5.942v-9.99c-1.185-.055-2.369-.108-3.554-.158V68.84h-5.941V58.453c-2.364-.088-4.727-.17-7.089-.242v10.63h-5.941V58.042c-.79-.02-1.58-.04-2.369-.058.018.294.027.594.027.898 0 6.802-4.384 10.695-10.572 10.695-6.187 0-10.53-3.893-10.53-10.695 0-.403.016-.797.047-1.18-5.847-.022-11.693.006-17.539.084-.032.323-.049.661-.049 1.014 0 3.688 1.844 6.188 4.548 6.188 2.664 0 3.934-1.885 4.139-4.098h5.941c-.655 5.286-4.056 8.687-10.284 8.687-6.393 0-10.367-4.057-10.367-10.777 0-.31.01-.616.029-.916-2.179.042-4.358.091-6.538.147v3.228c0 2.008.779 3.237 2.95 3.237.451 0 .984-.041 1.434-.123v4.507c-.573.164-1.843.369-3.155.369-4.753 0-7.129-2.418-7.129-7.17V58.2c-1.819.057-3.639.12-5.458.186.008.218.012.438.012.661v1.148h-14.259c.041 2.827 1.884 4.876 4.425 4.876 1.885 0 3.442-1.025 3.729-2.869h5.982c-.41 4.18-4.057 7.376-9.711 7.376-5.895 0-10.203-3.64-10.439-10.241l-2.53.147v9.356h-5.941v-8.983c-1.146.075-2.291.152-3.437.231v8.752h-5.942v-8.323c-.951.071-1.903.144-2.854.219v8.104h-5.49v-.737c0-.615.04-1.23.163-1.844-1.065 1.967-3.155 3.319-6.433 3.319-3.524 0-6.925-2.295-6.925-6.392 0-.284.015-.556.043-.816-1.27.123-2.541.25-3.812.378l-1.55 6.092H42.23l-1.057-4.888c-2.86.323-5.722.658-8.586 1.007Zm.952-3.807a986.51 986.51 0 0 1 6.856-.801L38.05 49.5c-.054-.286-.115-.576-.18-.884-.175-.843-.377-1.812-.557-3.133-.328 1.803-.574 2.95-.86 4.016l-2.914 11.652Zm28.953.63a2 2 0 0 0-.315 1.117c0 1.557 1.188 2.458 2.786 2.458 2.386 0 4.214-1.676 4.26-4.163-2.242.188-4.486.384-6.731.588Zm78.77-7.683c2.03-.024 4.059-.042 6.089-.054-.642-.796-1.613-1.308-2.946-1.308-1.199 0-2.307.457-3.143 1.362Zm22.092 3.642a11.27 11.27 0 0 0-.056 1.142c0 3.852 1.762 6.106 4.507 6.106 2.746 0 4.549-2.254 4.549-6.106 0-.354-.015-.695-.045-1.022-2.985-.052-5.97-.093-8.955-.12Zm7.606-3.573c-.79-.937-1.876-1.43-3.155-1.43-1.221 0-2.269.464-3.047 1.347 2.067.021 4.134.05 6.202.083Zm16.337.391c2.026.064 4.052.134 6.079.209-.512-1.3-1.532-2.03-2.946-2.03-1.364 0-2.478.7-3.133 1.821Zm22.124.918c2.255.116 4.511.238 6.767.368-.313-1.965-1.465-3.108-3.233-3.108-1.704 0-3.02 1.094-3.534 2.74Zm44.517 6.826c.771 1.678 2.141 2.686 3.858 2.686 1.75 0 2.899-.815 3.539-2.001-2.467-.236-4.933-.465-7.397-.685Zm-144.355-7.34c-.506-1.618-1.894-2.636-3.725-2.636-2.026 0-3.546 1.221-4.102 3.003 2.61-.132 5.219-.254 7.827-.366Zm125.252-2.636c-2.376 0-4.056 1.68-4.302 3.975h8.236c-.041-2.377-1.639-3.975-3.934-3.975ZM24.442 104.528l-.933 3.733h-8.44l-.639-2.523c-3.093.389-6.189.791-9.287 1.207-.966.129-1.85-.58-1.975-1.585s.558-1.925 1.524-2.055c2.946-.395 5.89-.778 8.832-1.149L7.816 79.578h6.924l3.934 17.66c.314 1.43.568 2.62.839 4.18l.295-.036c.269-1.541.522-2.726.833-4.144l4.22-17.66h8.687l3.893 17.66.118.54c.119.536.233 1.055.345 1.582l1.058-.11c.13-.67.273-1.328.445-2.052l4.016-17.62h6.638l-4.844 19.05c1.588-.154 3.175-.304 4.761-.45 1.468-1.26 3.648-1.873 6.016-2.169l2.869-.328c1.598-.204 2.13-.737 2.13-1.639 0-1.229-1.024-2.294-2.909-2.294-2.008 0-3.319 1.106-3.524 2.95h-6.023c.328-4.18 3.892-7.212 9.342-7.212 6.31 0 8.892 3.278 8.892 8.933v.338c.951-.073 1.903-.145 2.854-.216V79.578h5.942v16.538c1.145-.08 2.291-.157 3.437-.232V79.578h5.941v15.93c.94-.056 1.88-.112 2.82-.166 1.07-4.818 4.906-7.856 10.026-7.856 4.9 0 8.194 2.62 9.422 6.899 1.994-.081 3.987-.157 5.981-.227v-1.345h-4.344v-4.63h4.344v-7.13h5.9v7.13h4.835v4.63h-4.835v1.152c7.275-.218 14.546-.367 21.817-.447 1.639-3.877 5.363-6.032 9.76-6.032 4.967 0 8.089 2.441 9.324 5.977 1.496.007 2.992.018 4.488.032 1.585-3.798 5.136-6.009 9.629-6.009 4.652 0 8.285 2.34 9.802 6.341 1.037.026 2.074.054 3.111.083v-5.727h5.941v.778c0 .533-.041 1.107-.164 1.844 1.025-1.803 2.951-3.319 6.106-3.319 4.234 0 6.728 2.806 7.052 7.094 1.197.052 2.394.105 3.591.16v-6.557h5.941v.778c0 .533-.041 1.107-.164 1.844 1.024-1.803 2.95-3.319 6.105-3.319 4.549 0 7.089 3.237 7.089 8.072v.194c.841.051 1.683.103 2.524.156.887-5.145 4.819-8.422 10.137-8.422 5.938 0 9.517 3.847 9.919 9.832l2.446.193c.317-6.364 4.905-10.025 10.636-10.025 6.105 0 9.424 3.688 9.875 8.564h-5.941c-.164-2.09-1.393-3.892-3.893-3.892-2.494 0-4.593 1.974-4.669 5.845 6.772.57 13.554 1.19 20.348 1.862v-7.052h-4.343v-4.63h4.343v-7.13h5.9v7.13h4.835v4.63h-4.835v7.647c3.152.324 6.306.66 9.463 1.005.969.106 1.672 1.009 1.57 2.017-.102 1.008-.97 1.739-1.939 1.633-1.571-.172-3.14-.342-4.709-.508v3.695c-.574.164-1.844.369-3.155.369-4.006 0-6.324-1.717-6.954-5.102-2.17-.216-4.339-.426-6.507-.631-1.342 3.759-4.552 6.06-9.676 6.06-5.378 0-9.044-2.871-10.073-7.785-5.649-.452-11.292-.869-16.929-1.248.181 2.645 1.976 4.526 4.41 4.526 1.885 0 3.442-1.024 3.729-2.868h5.983c-.41 4.179-4.057 7.375-9.712 7.375-5.646 0-9.836-3.339-10.387-9.422-.798-.05-1.597-.1-2.396-.148v8.833h-5.941V99.08c-2.364-.133-4.727-.26-7.089-.38v9.561h-5.941v-9.848l-3.555-.159v10.007h-5.941V98.012c-2.363-.09-4.726-.175-7.089-.252v10.501h-5.941v-10.68l-2.362-.064c.013.258.02.52.02.787 0 6.802-4.384 10.694-10.571 10.694-6.188 0-10.531-3.892-10.531-10.694 0-.391.015-.774.045-1.147-5.844-.049-11.687-.054-17.53-.015-.037.342-.055.702-.055 1.08 0 3.688 1.843 6.187 4.548 6.187 2.663 0 3.933-1.885 4.138-4.097h5.942c-.656 5.285-4.057 8.686-10.285 8.686-6.392 0-10.367-4.056-10.367-10.776 0-.35.013-.69.037-1.025a1144.7 1144.7 0 0 0-20.96.44v3.043c0 2.008.779 3.237 2.95 3.237a8.56 8.56 0 0 0 1.434-.122v4.507c-.573.164-1.843.369-3.155.369-4.753 0-7.129-2.418-7.129-7.171v-3.67c-1.817.064-3.634.133-5.451.206.003.143.005.287.005.432v1.147h-14.26c.041 2.827 1.885 4.876 4.426 4.876 1.885 0 3.442-1.024 3.729-2.868h5.982c-.41 4.179-4.057 7.375-9.711 7.375-5.812 0-10.081-3.538-10.426-9.965-.848.05-1.695.1-2.543.152v9.076h-5.941v-8.7c-1.146.076-2.292.153-3.437.232v8.468h-5.942v-8.041c-.951.071-1.903.143-2.854.217v7.824h-5.49v-.738c0-.614.04-1.229.163-1.844-1.065 1.967-3.155 3.319-6.433 3.319-3.524 0-6.925-2.294-6.925-6.392 0-.195.007-.385.02-.569-1.283.121-2.566.244-3.85.37l-1.489 5.854h-8.645l-1.017-4.705c-2.886.312-5.773.636-8.663.972Zm.95-3.802c2.313-.266 4.624-.524 6.934-.775l-2.384-11.03c-.055-.285-.115-.576-.18-.883-.175-.843-.377-1.812-.557-3.133-.328 1.803-.574 2.95-.86 4.016l-2.952 11.805Zm28.844.75a2.08 2.08 0 0 0-.167.843c0 1.557 1.188 2.459 2.786 2.459 2.297 0 4.077-1.554 4.248-3.889-2.288.189-4.577.384-6.867.587Zm93.385-8.013c2.007-.01 4.014-.016 6.021-.017-.641-.784-1.608-1.288-2.93-1.288-1.175 0-2.261.437-3.091 1.305Zm22.033 3.76c-.033.344-.05.704-.05 1.08 0 3.852 1.762 6.106 4.508 6.106 2.745 0 4.548-2.254 4.548-6.105 0-.321-.012-.63-.036-.928-2.991-.062-5.981-.114-8.97-.154Zm7.687-3.543c-.796-.996-1.91-1.523-3.229-1.523-1.251 0-2.322.489-3.105 1.414 2.111.03 4.222.067 6.334.109Zm16.191.427c2.067.069 4.135.142 6.202.22-.492-1.385-1.534-2.17-2.998-2.17-1.414 0-2.561.754-3.204 1.95Zm22.154.93c2.276.115 4.552.236 6.829.364-.281-2.047-1.445-3.243-3.253-3.243-1.752 0-3.094 1.156-3.576 2.878Zm44.567 6.707c.774 1.666 2.14 2.665 3.849 2.665 1.759 0 2.91-.822 3.549-2.018-2.468-.222-4.933-.438-7.398-.647Zm-158.709-7.115c-.439-1.76-1.872-2.881-3.794-2.881-2.127 0-3.696 1.345-4.178 3.273 2.658-.14 5.315-.271 7.972-.392Zm139.598-2.881c-2.377 0-4.057 1.68-4.303 3.974h8.236c-.041-2.376-1.639-3.974-3.933-3.974ZM149.839 149.156c8.113 0 13.03-4.753 13.644-11.596h-6.433c-.491 3.729-3.114 6.269-6.966 6.269-3.589 0-6.337-2.297-7.335-6.328 7.704-.069 15.408-.066 23.115.007-.02.312-.031.629-.031.953 0 6.802 4.344 10.695 10.531 10.695s10.572-3.893 10.572-10.695c0-.195-.004-.387-.012-.577.785.02 1.569.041 2.353.063v10.471h5.942v-10.292c2.362.077 4.725.16 7.088.249v10.043h5.942v-9.805c1.184.05 2.369.102 3.554.155v9.65h5.941v-9.37c2.362.117 4.725.24 7.089.369v9.001h5.941v-8.664l2.413.145c.611 5.978 4.776 9.257 10.371 9.257 5.654 0 9.301-3.196 9.711-7.376h-5.982c-.287 1.844-1.844 2.868-3.729 2.868-2.388 0-4.16-1.809-4.399-4.374 5.641.367 11.288.769 16.941 1.204 1.058 4.848 4.711 7.678 10.05 7.678 5.107 0 8.313-2.287 9.663-6.025 2.173.197 4.346.398 6.521.605.633 3.378 2.95 5.092 6.952 5.092 1.311 0 2.581-.205 3.155-.369v-3.729c1.855.188 3.711.38 5.568.576a1.802 1.802 0 0 0 .378-3.584c-3.447-.363-6.89-.714-10.33-1.053v-7.698h4.835v-4.631h-4.835v-7.129h-5.901v7.129h-4.343v4.631h4.343v7.128a1498.943 1498.943 0 0 0-20.35-1.785c.023-3.973 2.145-5.999 4.671-5.999 2.5 0 3.729 1.803 3.893 3.893h5.941c-.45-4.877-3.769-8.564-9.875-8.564-5.782 0-10.401 3.726-10.643 10.196l-2.428-.184c-.341-6.088-3.932-10.012-9.93-10.012-5.396 0-9.365 3.374-10.174 8.649-.829-.05-1.658-.1-2.487-.148v-.429c0-4.835-2.54-8.072-7.088-8.072-3.155 0-5.081 1.516-6.106 3.319.123-.738.164-1.312.164-1.844v-.779h-5.941v6.821c-1.191-.054-2.382-.105-3.573-.156-.239-4.439-2.748-7.361-7.07-7.361-3.155 0-5.081 1.516-6.105 3.319.123-.738.164-1.312.164-1.844v-.779h-5.942v6.002a999.562 999.562 0 0 0-3.011-.08c-1.451-4.17-5.143-6.618-9.902-6.618-4.594 0-8.203 2.312-9.734 6.268-8.098-.082-16.193-.086-24.29-.011.004-6.098 3.322-9.576 7.867-9.576 3.893 0 6.106 2.376 6.556 5.859h6.597c-.655-7.129-5.9-11.186-13.112-11.186-8.236 0-14.546 5.573-14.546 14.915v.068c-6.585.097-13.172.247-19.761.451v-1.461h4.835v-4.631h-4.835v-7.129h-5.901v7.129h-4.343v4.631h4.343v1.658c-1.964.07-3.93.145-5.895.226-1.155-4.464-4.489-7.211-9.507-7.211-5.231 0-9.121 3.171-10.091 8.171-.918.053-1.837.106-2.755.161v-16.24H75.85v16.609c-1.145.074-2.29.15-3.437.228v-16.837h-5.941v17.253l-2.854.211v-.624c0-5.654-2.582-8.932-8.892-8.932-5.45 0-9.014 3.032-9.342 7.211h6.023c.205-1.844 1.516-2.95 3.524-2.95 1.885 0 2.91 1.065 2.91 2.295 0 .901-.533 1.434-2.132 1.639l-2.868.328c-2.535.316-4.852.996-6.314 2.443-1.508.136-3.016.274-4.524.416l4.905-19.29H40.27l-4.016 17.619a47.953 47.953 0 0 0-.487 2.272l-.973.097c-.125-.598-.254-1.182-.388-1.788l-.118-.54-3.893-17.66h-8.687l-4.22 17.66a88.453 88.453 0 0 0-.858 4.289l-.247.028a88.428 88.428 0 0 0-.862-4.317l-3.934-17.66H4.662l5.737 22.688c-2.94.356-5.883.725-8.828 1.105a1.801 1.801 0 1 0 .462 3.574c3.088-.399 6.174-.785 9.257-1.157l.625 2.472h8.44l.91-3.635c2.906-.326 5.811-.64 8.714-.944l.99 4.579h8.645l1.446-5.684c1.294-.123 2.588-.243 3.883-.362-.007.128-.01.259-.01.392 0 4.097 3.401 6.392 6.925 6.392 3.278 0 5.368-1.353 6.433-3.319a9.34 9.34 0 0 0-.164 1.844v.737h5.49v-7.604c.952-.072 1.904-.142 2.855-.211v7.815h5.941v-8.233c1.146-.078 2.292-.154 3.438-.229v8.462h5.941v-8.832c.853-.051 1.705-.101 2.558-.15.439 6.272 4.673 9.72 10.41 9.72 5.655 0 9.302-3.196 9.712-7.376h-5.983c-.286 1.844-1.843 2.868-3.728 2.868-2.54 0-4.385-2.048-4.426-4.876h14.26v-1.147l-.001-.182c1.816-.074 3.631-.143 5.446-.208v3.422c0 4.753 2.377 7.171 7.13 7.171 1.311 0 2.582-.205 3.155-.369v-4.507c-.45.082-.983.123-1.434.123-2.172 0-2.95-1.229-2.95-3.237v-2.801c6.687-.208 13.371-.359 20.054-.456 1.247 7.397 6.393 11.575 13.844 11.575Zm-98.83-7.323c2.307-.199 4.614-.391 6.92-.576-.259 2.217-2 3.678-4.227 3.678-1.598 0-2.787-.901-2.787-2.458 0-.233.032-.447.093-.644Zm-21.796-1.537-2.424-11.218c-.055-.285-.115-.575-.18-.883-.175-.843-.377-1.812-.558-3.132-.327 1.802-.573 2.95-.86 4.015l-2.994 11.975c2.34-.259 4.679-.512 7.016-.757Zm69.244-5.196c-2.702.123-5.404.255-8.107.397.382-2.096 2.005-3.592 4.247-3.592 2.033 0 3.52 1.255 3.86 3.195Zm73.432 2.48c-.021.283-.032.577-.032.881 0 3.852 1.762 6.105 4.507 6.105 2.745 0 4.548-2.253 4.548-6.105 0-.247-.007-.487-.021-.72-3.001-.064-6.002-.118-9.002-.161Zm7.908-3.467a1266.23 1266.23 0 0 0-6.745-.12c.796-1.097 1.947-1.678 3.312-1.678 1.436 0 2.63.624 3.433 1.798Zm15.854.422c2.141.069 4.282.145 6.424.225-.449-1.556-1.528-2.445-3.087-2.445-1.518 0-2.727.868-3.337 2.22Zm22.224.912c2.306.114 4.613.233 6.921.359-.219-2.198-1.402-3.491-3.282-3.491-1.837 0-3.222 1.27-3.639 3.132Zm44.672 6.542c.781 1.614 2.128 2.577 3.807 2.577 1.732 0 2.874-.796 3.518-1.961-2.443-.212-4.884-.417-7.325-.616Zm-23.456-6.109c.246-2.295 1.926-3.975 4.303-3.975 2.294 0 3.893 1.598 3.933 3.975h-8.236Z" clip-rule="evenodd"/><path fill="#fff" d="m27.919 195.141 4.838-19.34c.287-1.066.532-2.213.86-4.016.247 1.803.533 2.95.738 4.016l4.182 19.34h8.65l7.298-28.683h-6.642l-4.017 17.62c-.41 1.721-.656 3.073-.943 5.081-.328-1.926-.656-3.36-1.025-5.04l-3.895-17.661h-8.691l-4.223 17.661c-.369 1.68-.656 3.032-.984 5.04-.328-2.008-.615-3.36-.984-5.04l-3.936-17.661h-6.928l7.256 28.683h8.446ZM59.438 195.879c3.28 0 5.37-1.353 6.436-3.319a9.34 9.34 0 0 0-.164 1.844v.737h5.494v-11.842c0-5.654-2.583-8.932-8.896-8.932-5.453 0-9.02 3.032-9.348 7.211h6.027c.205-1.844 1.517-2.95 3.526-2.95 1.885 0 2.91 1.065 2.91 2.295 0 .901-.533 1.434-2.132 1.639l-2.87.328c-4.263.532-7.912 2.089-7.912 6.597 0 4.097 3.403 6.392 6.929 6.392Zm1.845-4.221c-1.6 0-2.788-.901-2.788-2.458 0-1.516 1.353-2.254 3.403-2.623l1.393-.246c1.19-.245 1.845-.45 2.255-.819v1.885c0 2.54-1.845 4.261-4.263 4.261ZM74.06 166.458v28.683h5.944v-28.683H74.06ZM83.443 166.458v28.683h5.945v-28.683h-5.945ZM102.364 195.879c5.657 0 9.306-3.196 9.716-7.376h-5.986c-.287 1.844-1.844 2.868-3.73 2.868-2.542 0-4.387-2.048-4.428-4.876h14.267v-1.147c0-6.638-3.649-10.981-9.962-10.981-6.068 0-10.332 4.261-10.332 10.694 0 6.966 4.387 10.818 10.455 10.818Zm-4.469-13.276c.246-2.295 1.927-3.975 4.305-3.975 2.296 0 3.894 1.598 3.935 3.975h-8.24ZM124.785 195.551c1.312 0 2.583-.205 3.157-.369v-4.507a8.478 8.478 0 0 1-1.435.123c-2.173 0-2.952-1.23-2.952-3.237v-7.868h4.838v-4.63h-4.838v-7.129h-5.903v7.129h-4.346v4.63h4.346v8.687c0 4.753 2.378 7.171 7.133 7.171ZM144.852 195.879c8.117 0 13.037-4.753 13.652-11.596h-6.437c-.492 3.729-3.116 6.269-6.969 6.269-4.551 0-7.749-3.688-7.749-9.916 0-6.105 3.321-9.588 7.872-9.588 3.894 0 6.108 2.377 6.559 5.859h6.601c-.656-7.129-5.904-11.186-13.119-11.186-8.241 0-14.554 5.573-14.554 14.915 0 9.67 5.534 15.243 14.144 15.243ZM171.391 195.879c6.191 0 10.578-3.893 10.578-10.695 0-6.679-4.387-10.817-10.578-10.817-6.149 0-10.536 4.138-10.536 10.817 0 6.802 4.346 10.695 10.536 10.695Zm0-4.59c-2.746 0-4.509-2.253-4.509-6.105 0-3.933 1.845-6.146 4.509-6.146 2.706 0 4.551 2.213 4.551 6.146 0 3.852-1.804 6.105-4.551 6.105ZM190.256 195.141v-11.76c0-2.499 1.558-4.343 3.772-4.343 2.091 0 3.321 1.598 3.321 4.261v11.842h5.944v-12.702c0-4.835-2.542-8.072-7.092-8.072-3.157 0-5.084 1.516-6.109 3.319.123-.738.164-1.312.164-1.844v-.779h-5.944v20.078h5.944ZM212.794 195.141v-11.76c0-2.499 1.558-4.343 3.772-4.343 2.091 0 3.32 1.598 3.32 4.261v11.842h5.945v-12.702c0-4.835-2.542-8.072-7.092-8.072-3.157 0-5.084 1.516-6.109 3.319.123-.738.164-1.312.164-1.844v-.779h-5.945v20.078h5.945ZM238.621 195.879c5.658 0 9.307-3.196 9.717-7.376h-5.986c-.287 1.844-1.845 2.868-3.731 2.868-2.541 0-4.386-2.048-4.427-4.876h14.267v-1.147c0-6.638-3.649-10.981-9.963-10.981-6.067 0-10.331 4.261-10.331 10.694 0 6.966 4.387 10.818 10.454 10.818Zm-4.468-13.276c.246-2.295 1.927-3.975 4.304-3.975 2.296 0 3.895 1.598 3.936 3.975h-8.24ZM261.225 195.879c6.232 0 9.635-3.401 10.291-8.687h-5.945c-.205 2.213-1.476 4.097-4.141 4.097-2.706 0-4.55-2.499-4.55-6.187 0-4.015 2.131-6.064 4.673-6.064 2.501 0 3.731 1.803 3.895 3.893h5.945c-.451-4.877-3.772-8.564-9.881-8.564-5.944 0-10.659 3.933-10.659 10.735 0 6.72 3.977 10.777 10.372 10.777ZM284.374 195.551c1.312 0 2.583-.205 3.157-.369v-4.507a8.478 8.478 0 0 1-1.435.123c-2.173 0-2.952-1.23-2.952-3.237v-7.868h4.838v-4.63h-4.838v-7.129h-5.903v7.129h-4.346v4.63h4.346v8.687c0 4.753 2.377 7.171 7.133 7.171Z"/></svg>
