<svg xmlns="http://www.w3.org/2000/svg" width="292" height="220" fill="none"><g clip-path="url(#a)"><path fill="#141414" d="M0 0h292v220H0z"/><path fill="#AB82FF" d="M2 49h288v1H2z"/><path stroke="#fff" stroke-width="2" d="M183.425 167.528a4.069 4.069 0 0 0 5.669 0l51.732-50.65a3.868 3.868 0 0 0 0-5.551l-11.473-11.233a4.069 4.069 0 0 0-5.669 0l-36.716 35.948a1.017 1.017 0 0 1-1.417 0l-36.717-35.949m34.591 67.435Zm0 0-36.716-35.948a1.017 1.017 0 0 0-1.417 0m0 0Zm0 0-36.715 35.948a4.07 4.07 0 0 1-5.67 0m0 0Zm0 0-51.733-50.651a3.867 3.867 0 0 1 0-5.551l11.473-11.233a4.07 4.07 0 0 1 5.67 0l36.716 35.949a1.017 1.017 0 0 0 1.417 0m0 0Zm0 0 36.715-35.949a4.07 4.07 0 0 1 5.669 0m0 0Zm-59.528-26.1c31.311-30.657 82.077-30.657 113.388 0l3.768 3.689a3.866 3.866 0 0 1 0 5.55l-12.891 12.621a2.034 2.034 0 0 1-2.834 0l-5.186-5.077c-21.843-21.386-57.258-21.386-79.102 0l-5.553 5.438a2.035 2.035 0 0 1-2.835 0l-12.89-12.621a3.867 3.867 0 0 1 0-5.551l4.135-4.05Z"/><path fill="#fff" d="M62.75 117h1.65l1.011-1.451c.086-.135.21-.319.345-.565.111.209.234.405.345.565L67.05 117h1.7l-2.193-3.098L68.701 111H67.05l-.875 1.254c-.16.246-.283.443-.37.603a7.152 7.152 0 0 0-.357-.603L64.635 111h-1.713l2.083 2.951L62.75 117Z"/><path fill="#AB82FF" d="M18.857 29.5h6.108v-1.404h-4.032c.108-.204.444-.492 1.152-.984l.564-.396a14.2 14.2 0 0 0 1.224-.96c.636-.588 1.092-1.344 1.092-2.316 0-1.476-1.08-2.556-2.856-2.556-1.956 0-3.144 1.236-3.144 3.096v.072h1.608v-.084c0-1.116.528-1.8 1.536-1.8.828 0 1.332.456 1.332 1.26 0 .768-.504 1.32-1.548 2.052l-.552.372c-.552.396-.996.732-1.32 1.032-.636.576-1.128 1.416-1.164 2.616Zm7.327 0h1.608l.984-1.416c.084-.132.204-.312.336-.552.108.204.228.396.336.552l.924 1.416h1.656l-2.136-3.024 2.088-2.832h-1.608l-.852 1.224c-.156.24-.276.432-.36.588a6.903 6.903 0 0 0-.348-.588l-.792-1.224h-1.668l2.028 2.88-2.196 2.976ZM0 0h49v2H2L0 0Zm49 49H1h48ZM0 49V0l2 2v47H0ZM49 1v48V1ZM49 0h1v220h-1zM242 0h1v220h-1zM260.857 29.5h6.108v-1.404h-4.032c.108-.204.444-.492 1.152-.984l.564-.396a14.2 14.2 0 0 0 1.224-.96c.636-.588 1.092-1.344 1.092-2.316 0-1.476-1.08-2.556-2.856-2.556-1.956 0-3.144 1.236-3.144 3.096v.072h1.608v-.084c0-1.116.528-1.8 1.536-1.8.828 0 1.332.456 1.332 1.26 0 .768-.504 1.32-1.548 2.052l-.552.372c-.552.396-.996.732-1.32 1.032-.636.576-1.128 1.416-1.164 2.616Zm7.327 0h1.608l.984-1.416c.084-.132.204-.312.336-.552.108.204.228.396.336.552l.924 1.416h1.656l-2.136-3.024 2.088-2.832h-1.608l-.852 1.224c-.156.24-.276.432-.36.588a6.903 6.903 0 0 0-.348-.588l-.792-1.224h-1.668l2.028 2.88-2.196 2.976ZM243 0h49l-2 2h-47V0Zm48 49h-48 48Zm-48 0V1v48Zm49-49v49h-2V2l2-2ZM260.857 199.5h6.108v-1.404h-4.032c.108-.204.444-.492 1.152-.984l.564-.396a14.2 14.2 0 0 0 1.224-.96c.636-.588 1.092-1.344 1.092-2.316 0-1.476-1.08-2.556-2.856-2.556-1.956 0-3.144 1.236-3.144 3.096v.072h1.608v-.084c0-1.116.528-1.8 1.536-1.8.828 0 1.332.456 1.332 1.26 0 .768-.504 1.32-1.548 2.052l-.552.372c-.552.396-.996.732-1.32 1.032-.636.576-1.128 1.416-1.164 2.616Zm7.327 0h1.608l.984-1.416c.084-.132.204-.312.336-.552.108.204.228.396.336.552l.924 1.416h1.656l-2.136-3.024 2.088-2.832h-1.608l-.852 1.224c-.156.24-.276.432-.36.588a6.903 6.903 0 0 0-.348-.588l-.792-1.224h-1.668l2.028 2.88-2.196 2.976ZM243 171h48-48Zm49 49h-49v-2h47l2 2Zm-49-1v-48 48Zm49-48v49l-2-2v-47h2ZM18.857 199.5h6.108v-1.404h-4.032c.108-.204.444-.492 1.152-.984l.564-.396a14.2 14.2 0 0 0 1.224-.96c.636-.588 1.092-1.344 1.092-2.316 0-1.476-1.08-2.556-2.856-2.556-1.956 0-3.144 1.236-3.144 3.096v.072h1.608v-.084c0-1.116.528-1.8 1.536-1.8.828 0 1.332.456 1.332 1.26 0 .768-.504 1.32-1.548 2.052l-.552.372c-.552.396-.996.732-1.32 1.032-.636.576-1.128 1.416-1.164 2.616Zm7.327 0h1.608l.984-1.416c.084-.132.204-.312.336-.552.108.204.228.396.336.552l.924 1.416h1.656l-2.136-3.024 2.088-2.832h-1.608l-.852 1.224c-.156.24-.276.432-.36.588a6.903 6.903 0 0 0-.348-.588l-.792-1.224h-1.668l2.028 2.88-2.196 2.976ZM1 171h48H1Zm48 49H0l2-2h47v2Zm-49 0v-49h2v47l-2 2Zm49-49v48-48Z"/><path stroke="#fff" stroke-width="2" d="m77.946 109.591-7.821-7.598c-1.723-1.674-2.585-2.511-3.59-2.78a4 4 0 0 0-2.072-.001c-1.004.269-1.866 1.105-3.59 2.779l-7.464 7.244c-1.819 1.765-2.728 2.648-3.019 3.69a3.998 3.998 0 0 0 0 2.15c.291 1.042 1.2 1.925 3.02 3.69l7.601 7.378c1.677 1.628 2.516 2.442 3.497 2.715a4 4 0 0 0 2.032.031c.99-.244 1.852-1.033 3.576-2.61l7.684-7.025c1.921-1.756 2.881-2.634 3.199-3.69a4 4 0 0 0 .033-2.188c-.285-1.065-1.219-1.972-3.085-3.785ZM111.939 77.084l-7.816-7.594c-1.723-1.673-2.584-2.51-3.588-2.779a4 4 0 0 0-2.072 0c-1.004.268-1.866 1.104-3.59 2.775l-8.188 7.94c-1.365 1.324-2.048 1.986-2.266 2.768a3 3 0 0 0 0 1.613c.218.781.9 1.444 2.264 2.768l11.076 10.75c.837.813 1.256 1.219 1.746 1.356a2 2 0 0 0 1.015.016c.494-.122.926-.515 1.788-1.301l9.479-8.642c1.925-1.756 2.888-2.634 3.207-3.69a3.996 3.996 0 0 0 .034-2.19c-.285-1.066-1.22-1.974-3.089-3.79Z"/><path fill="#fff" d="M97 84.25h1.65l1.011-1.45c.086-.136.21-.32.345-.566.111.209.234.405.345.565l.949 1.451h1.7l-2.193-3.098 2.144-2.902H101.3l-.875 1.254c-.16.246-.283.443-.37.603a6.928 6.928 0 0 0-.357-.603l-.813-1.254h-1.713l2.083 2.95L97 84.25Z"/><path stroke="#fff" stroke-width="2" d="m214.054 109.591 7.821-7.598c1.723-1.674 2.585-2.511 3.589-2.78a4.002 4.002 0 0 1 2.073-.001c1.004.269 1.866 1.105 3.59 2.779l7.464 7.244c1.819 1.765 2.728 2.648 3.019 3.69a4.004 4.004 0 0 1 0 2.15c-.291 1.042-1.2 1.925-3.019 3.69l-7.602 7.378c-1.677 1.628-2.516 2.442-3.497 2.715a3.999 3.999 0 0 1-2.032.031c-.989-.244-1.852-1.033-3.576-2.61l-7.684-7.025c-1.921-1.756-2.881-2.634-3.199-3.69a3.998 3.998 0 0 1-.033-2.188c.285-1.065 1.219-1.972 3.086-3.785Z"/><path fill="#fff" d="M223.25 117h1.651l1.01-1.451c.086-.135.21-.319.345-.565.111.209.234.405.345.565l.949 1.451h1.7l-2.193-3.098 2.144-2.902h-1.651l-.875 1.254c-.16.246-.283.443-.37.603a6.994 6.994 0 0 0-.357-.603l-.813-1.254h-1.713l2.083 2.951L223.25 117Z"/><path fill="#AB82FF" d="M0 14.5a1 1 0 1 1 2 0v190a1 1 0 0 1-2 0v-190Z"/><rect width="2" height="187" x="290" y="21.5" fill="#AB82FF" rx="1"/><path fill="#AB82FF" d="M12 0h254v2H12V0ZM2 170h288v1H2zM28 218h236v2H28z"/></g><defs><clipPath id="a"><path fill="#fff" d="M0 0h292v220H0z"/></clipPath></defs></svg>
