<svg xmlns="http://www.w3.org/2000/svg" width="300" height="48" fill="none"><g clip-path="url(#a)"><path fill="#3396FF" d="M18.078 13.33c8.942-8.696 23.439-8.696 32.38 0l1.076 1.046c.447.434.447 1.14 0 1.574l-3.681 3.58a.584.584 0 0 1-.81 0l-1.48-1.44c-6.238-6.066-16.352-6.066-22.59 0l-1.585 1.542a.584.584 0 0 1-.81 0l-3.68-3.58a1.092 1.092 0 0 1 0-1.574l1.18-1.149Zm39.993 7.403 3.276 3.186c.447.435.447 1.14 0 1.574L46.574 39.86a1.168 1.168 0 0 1-1.619 0L34.471 29.664a.292.292 0 0 0-.405 0L23.58 39.86a1.168 1.168 0 0 1-1.619 0L7.19 25.493a1.092 1.092 0 0 1 0-1.574l3.276-3.186a1.168 1.168 0 0 1 1.62 0l10.484 10.196a.292.292 0 0 0 .405 0l10.484-10.196a1.168 1.168 0 0 1 1.62 0l10.484 10.196a.292.292 0 0 0 .405 0l10.485-10.196a1.168 1.168 0 0 1 1.619 0Z"/><path fill="#fff" d="m81.385 35.226 3.958-15.73c.235-.867.436-1.8.704-3.267.202 1.466.436 2.4.604 3.266l3.42 15.73h7.078l5.969-23.329h-5.433l-3.287 14.331c-.335 1.4-.536 2.5-.771 4.133-.268-1.566-.537-2.733-.838-4.1l-3.187-14.364h-7.11l-3.454 14.365a68.913 68.913 0 0 0-.805 4.099 68.913 68.913 0 0 0-.805-4.1l-3.22-14.364H68.54l5.936 23.33h6.91ZM107.17 35.825c2.683 0 4.393-1.1 5.266-2.699-.101.5-.135 1-.135 1.5v.6h4.495v-9.632c0-4.6-2.113-7.265-7.278-7.265-4.461 0-7.379 2.466-7.647 5.865h4.93c.168-1.5 1.241-2.4 2.884-2.4 1.543 0 2.382.867 2.382 1.867 0 .733-.436 1.166-1.744 1.333l-2.348.267c-3.488.433-6.473 1.7-6.473 5.365 0 3.333 2.784 5.2 5.668 5.2Zm1.509-3.432c-1.308 0-2.28-.733-2.28-2 0-1.233 1.106-1.833 2.783-2.133l1.141-.2c.972-.2 1.509-.366 1.844-.666v1.533c0 2.066-1.509 3.466-3.488 3.466ZM119.132 11.896v23.33h4.863v-23.33h-4.863ZM126.808 11.896v23.33h4.863v-23.33h-4.863ZM142.286 35.825c4.629 0 7.613-2.599 7.949-5.998h-4.897c-.235 1.5-1.509 2.332-3.052 2.332-2.079 0-3.588-1.666-3.622-3.965h11.671v-.934c0-5.399-2.984-8.931-8.149-8.931-4.964 0-8.452 3.466-8.452 8.698 0 5.666 3.589 8.798 8.552 8.798Zm-3.655-10.798c.201-1.866 1.576-3.232 3.521-3.232 1.878 0 3.186 1.3 3.22 3.232h-6.741ZM160.629 35.559c1.073 0 2.112-.167 2.582-.3v-3.666c-.369.067-.805.1-1.174.1-1.777 0-2.415-1-2.415-2.633v-6.399h3.958v-3.766h-3.958v-5.799h-4.829v5.8h-3.555v3.765h3.555v7.066c0 3.866 1.945 5.832 5.836 5.832ZM177.044 35.825c6.641 0 10.666-3.866 11.169-9.431h-5.266c-.402 3.033-2.549 5.099-5.701 5.099-3.723 0-6.339-3-6.339-8.065 0-4.966 2.716-7.799 6.439-7.799 3.186 0 4.997 1.933 5.366 4.766h5.4c-.537-5.8-4.83-9.098-10.732-9.098-6.742 0-11.906 4.532-11.906 12.13 0 7.866 4.527 12.398 11.57 12.398ZM198.756 35.825c5.064 0 8.653-3.166 8.653-8.698 0-5.432-3.589-8.798-8.653-8.798-5.031 0-8.62 3.366-8.62 8.798 0 5.532 3.555 8.698 8.62 8.698Zm0-3.732c-2.248 0-3.69-1.833-3.69-4.966 0-3.2 1.51-5 3.69-5 2.213 0 3.722 1.8 3.722 5 0 3.133-1.475 4.966-3.722 4.966ZM214.188 35.226V25.66c0-2.033 1.275-3.533 3.086-3.533 1.71 0 2.716 1.3 2.716 3.466v9.632h4.863V24.894c0-3.932-2.079-6.565-5.802-6.565-2.582 0-4.159 1.233-4.997 2.7a8.76 8.76 0 0 0 .134-1.5v-.634h-4.863v16.33h4.863ZM232.626 35.226V25.66c0-2.033 1.274-3.533 3.085-3.533 1.711 0 2.717 1.3 2.717 3.466v9.632h4.863V24.894c0-3.932-2.08-6.565-5.802-6.565-2.583 0-4.159 1.233-4.998 2.7.101-.6.135-1.067.135-1.5v-.634h-4.863v16.33h4.863ZM253.754 35.825c4.628 0 7.613-2.599 7.949-5.998h-4.897c-.235 1.5-1.509 2.332-3.052 2.332-2.079 0-3.588-1.666-3.622-3.965h11.671v-.934c0-5.399-2.985-8.931-8.149-8.931-4.964 0-8.452 3.466-8.452 8.698 0 5.666 3.588 8.798 8.552 8.798Zm-3.656-10.798c.202-1.866 1.577-3.232 3.522-3.232 1.878 0 3.186 1.3 3.22 3.232h-6.742ZM272.246 35.825c5.098 0 7.881-2.766 8.418-7.065h-4.863c-.168 1.8-1.208 3.333-3.388 3.333-2.213 0-3.722-2.033-3.722-5.033 0-3.266 1.744-4.932 3.823-4.932 2.046 0 3.052 1.466 3.186 3.166h4.863c-.369-3.966-3.085-6.965-8.083-6.965-4.863 0-8.72 3.199-8.72 8.731 0 5.466 3.254 8.765 8.486 8.765ZM291.183 35.559c1.073 0 2.113-.167 2.582-.3v-3.666c-.369.067-.805.1-1.173.1-1.778 0-2.415-1-2.415-2.633v-6.399h3.957v-3.766h-3.957v-5.799h-4.83v5.8h-3.555v3.765h3.555v7.066c0 3.866 1.945 5.832 5.836 5.832Z"/></g><defs><clipPath id="a"><path fill="#fff" d="M0 0h300v47.085H0z"/></clipPath></defs></svg>
