<svg xmlns="http://www.w3.org/2000/svg" width="100" height="100" fill="none"><path fill="#fff" stroke="#fff" d="m63.03 8.1 16.741 9.666c5.165 2.982 7.636 4.417 9.37 6.467a15.501 15.501 0 0 1 2.744 4.754c.91 2.526.916 5.384.916 11.347v19.332c0 5.963-.007 8.821-.916 11.347a15.501 15.501 0 0 1-2.745 4.754c-1.733 2.05-4.204 3.486-9.369 6.467L63.03 91.9c-5.165 2.981-7.643 4.404-10.285 4.88a15.501 15.501 0 0 1-5.49 0c-2.642-.476-5.12-1.898-10.285-4.88l-16.741-9.666c-5.165-2.981-7.636-4.417-9.37-6.467a15.5 15.5 0 0 1-2.744-4.754c-.91-2.526-.916-5.384-.916-11.347V40.334c0-5.963.007-8.821.916-11.347a15.5 15.5 0 0 1 2.745-4.754c1.733-2.05 4.204-3.486 9.369-6.467L36.97 8.1c5.165-2.982 7.643-4.404 10.285-4.88a15.5 15.5 0 0 1 5.49 0c2.642.476 5.12 1.898 10.285 4.88Z"/><circle cx="50" cy="50" r="42" fill="#fff"/><path fill="#3B4040" d="M49.994 20.25v41.087l18.784-10.792L49.994 20.25Z"/><path fill="#9EA9A9" d="M49.995 20.25 31.21 50.545l18.784 10.793V20.25Z"/><path fill="#3B4040" d="M49.994 64.795v14.942l18.795-25.73-18.795 10.788Z"/><path fill="#9EA9A9" d="M49.995 79.736V64.794L31.21 54.007l18.784 25.73Z"/><path fill="#141414" d="m49.994 61.338 18.784-10.793-18.784-8.299v19.092Z"/><path fill="#585F5F" d="m31.21 50.545 18.785 10.792v-19.09L31.21 50.544Z"/></svg>
