<svg xmlns="http://www.w3.org/2000/svg" width="100" height="100" fill="none"><path fill="#F1F3F3" stroke="#fff" d="m63.03 8.1 16.741 9.666c5.165 2.982 7.636 4.417 9.37 6.467a15.501 15.501 0 0 1 2.744 4.754c.91 2.526.916 5.384.916 11.347v19.332c0 5.963-.007 8.821-.916 11.347a15.501 15.501 0 0 1-2.745 4.754c-1.733 2.05-4.204 3.486-9.369 6.467L63.03 91.9c-5.165 2.981-7.643 4.404-10.285 4.88a15.501 15.501 0 0 1-5.49 0c-2.642-.476-5.12-1.898-10.285-4.88l-16.741-9.666c-5.165-2.981-7.636-4.417-9.37-6.467a15.5 15.5 0 0 1-2.744-4.754c-.91-2.526-.916-5.384-.916-11.347V40.334c0-5.963.007-8.821.916-11.347a15.5 15.5 0 0 1 2.745-4.754c1.733-2.05 4.204-3.486 9.369-6.467L36.97 8.1c5.165-2.982 7.643-4.404 10.285-4.88a15.5 15.5 0 0 1 5.49 0c2.642.476 5.12 1.898 10.285 4.88Z"/><path fill="#000" d="M64.527 28.436 54.493 43.333a1.067 1.067 0 0 0 1.584 1.4l9.876-8.567a.4.4 0 0 1 .667.304v26.82a.4.4 0 0 1-.707.256L36.06 27.81A5.116 5.116 0 0 0 32.157 26h-1.044A5.113 5.113 0 0 0 26 31.113v37.773A5.113 5.113 0 0 0 31.113 74a5.118 5.118 0 0 0 4.36-2.437l10.034-14.897a1.066 1.066 0 0 0-1.584-1.4l-9.876 8.567a.4.4 0 0 1-.667-.303V36.703a.4.4 0 0 1 .707-.257l29.85 35.744A5.117 5.117 0 0 0 67.84 74h1.043A5.113 5.113 0 0 0 74 68.886V31.113a5.113 5.113 0 0 0-7.61-4.463 5.117 5.117 0 0 0-1.863 1.786Z"/></svg>
