<svg xmlns="http://www.w3.org/2000/svg" width="100" height="100" fill="none"><path fill="#E84142" d="M36.72 7.667c5.132-2.963 7.698-4.444 10.447-4.939a16 16 0 0 1 5.666 0c2.749.495 5.315 1.976 10.447 4.94l16.741 9.665c5.132 2.963 7.699 4.444 9.501 6.577a16.001 16.001 0 0 1 2.833 4.908c.946 2.627.946 5.59.946 11.516v19.332c0 5.926 0 8.889-.946 11.516a16.001 16.001 0 0 1-2.833 4.908c-1.802 2.133-4.369 3.614-9.5 6.577L63.28 92.333c-5.132 2.963-7.698 4.444-10.447 4.939a15.999 15.999 0 0 1-5.666 0c-2.749-.495-5.315-1.976-10.447-4.94l-16.741-9.665c-5.132-2.963-7.699-4.444-9.501-6.577a16 16 0 0 1-2.833-4.908c-.946-2.627-.946-5.59-.946-11.516V40.334c0-5.926 0-8.889.946-11.516a16 16 0 0 1 2.833-4.908c1.802-2.133 4.369-3.614 9.5-6.577L36.72 7.667Z"/><g clip-path="url(#a)"><path fill="#fff" d="M74.627 23.723H25.266v44.894h49.361V23.723Z"/><path fill="#E84142" fill-rule="evenodd" d="M89.92 50c0 22.062-17.885 39.947-39.947 39.947S10.026 72.062 10.026 50s17.885-39.947 39.947-39.947S89.92 27.938 89.92 50ZM38.653 65.897h-7.752c-1.63 0-2.434 0-2.924-.314a1.97 1.97 0 0 1-.894-1.541c-.029-.579.373-1.285 1.178-2.699l19.142-33.74c.815-1.433 1.227-2.15 1.747-2.414a1.975 1.975 0 0 1 1.786 0c.52.265.932.981 1.747 2.414l3.935 6.87.02.034c.88 1.537 1.326 2.317 1.52 3.135a5.826 5.826 0 0 1 0 2.728c-.196.824-.637 1.61-1.53 3.17L46.573 61.314l-.026.045c-.886 1.55-1.334 2.336-1.956 2.928a5.853 5.853 0 0 1-2.385 1.384c-.815.226-1.727.226-3.553.226Zm19.578 0H69.34c1.638 0 2.463 0 2.954-.324.53-.343.863-.922.893-1.55.028-.56-.365-1.24-1.137-2.57l-.08-.139-5.564-9.519-.064-.107c-.782-1.322-1.176-1.99-1.683-2.248a1.954 1.954 0 0 0-1.776 0c-.51.265-.923.962-1.737 2.365L55.6 61.324l-.019.033c-.812 1.4-1.217 2.101-1.188 2.675.04.629.363 1.207.893 1.551.481.314 1.305.314 2.944.314Z" clip-rule="evenodd"/></g><defs><clipPath id="a"><path fill="#fff" d="M10 10h79.947v80H10z"/></clipPath></defs></svg>
