<svg xmlns="http://www.w3.org/2000/svg" width="100" height="100" fill="none"><path fill="#FF0420" d="M36.72 7.667c5.132-2.963 7.698-4.444 10.447-4.939a16 16 0 0 1 5.666 0c2.749.495 5.315 1.976 10.447 4.94l16.741 9.665c5.132 2.963 7.699 4.444 9.501 6.577a16.001 16.001 0 0 1 2.833 4.908c.946 2.627.946 5.59.946 11.516v19.332c0 5.926 0 8.889-.946 11.516a16.001 16.001 0 0 1-2.833 4.908c-1.802 2.133-4.369 3.614-9.5 6.577L63.28 92.333c-5.132 2.963-7.698 4.444-10.447 4.939a15.999 15.999 0 0 1-5.666 0c-2.749-.495-5.315-1.976-10.447-4.94l-16.741-9.665c-5.132-2.963-7.699-4.444-9.501-6.577a16 16 0 0 1-2.833-4.908c-.946-2.627-.946-5.59-.946-11.516V40.334c0-5.926 0-8.889.946-11.516a16 16 0 0 1 2.833-4.908c1.802-2.133 4.369-3.614 9.5-6.577L36.72 7.667Z"/><g clip-path="url(#a)"><path fill="#FF0420" d="M50 92c23.196 0 42-18.804 42-42S73.196 8 50 8 8 26.804 8 50s18.804 42 42 42Z"/><path fill="#fff" d="M37.758 61.163c-2.5 0-4.55-.589-6.147-1.765-1.576-1.198-2.364-2.9-2.364-5.107 0-.462.053-1.03.158-1.702.273-1.514.662-3.331 1.166-5.454 1.43-5.78 5.117-8.669 11.065-8.669 1.618 0 3.068.273 4.35.82 1.282.525 2.29 1.324 3.026 2.396.736 1.05 1.103 2.311 1.103 3.782 0 .442-.052.999-.157 1.671a71.356 71.356 0 0 1-1.135 5.454c-.736 2.879-2.007 5.033-3.814 6.462-1.808 1.408-4.224 2.112-7.25 2.112Zm.442-4.54c1.177 0 2.175-.346 2.994-1.04.841-.693 1.44-1.754 1.797-3.183.483-1.976.851-3.7 1.104-5.17.084-.442.126-.893.126-1.356 0-1.912-.999-2.869-2.995-2.869-1.177 0-2.186.347-3.026 1.04-.82.694-1.408 1.756-1.766 3.185-.378 1.408-.756 3.131-1.134 5.17-.085.42-.127.861-.127 1.323 0 1.934 1.01 2.9 3.027 2.9ZM51.563 60.848c-.232 0-.41-.074-.536-.221a.753.753 0 0 1-.095-.567l4.35-20.49a.902.902 0 0 1 .347-.568.961.961 0 0 1 .599-.22h8.385c2.333 0 4.203.483 5.611 1.45 1.43.966 2.144 2.364 2.144 4.192 0 .525-.063 1.072-.19 1.64-.525 2.416-1.586 4.203-3.183 5.358-1.576 1.156-3.74 1.734-6.494 1.734h-4.255l-1.45 6.904a.903.903 0 0 1-.347.567.96.96 0 0 1-.6.22h-4.286Zm11.159-12.042c.882 0 1.65-.242 2.3-.725.673-.484 1.115-1.177 1.325-2.08.063-.358.095-.673.095-.946 0-.61-.18-1.072-.536-1.387-.358-.337-.967-.505-1.829-.505h-3.783l-1.197 5.643h3.625Z"/></g><defs><clipPath id="a"><path fill="#fff" d="M8 8h84v84H8z"/></clipPath></defs></svg>
