<svg xmlns="http://www.w3.org/2000/svg" width="100" height="100" fill="none"><path fill="url(#a)" d="M36.72 7.667c5.132-2.963 7.698-4.444 10.447-4.939a16 16 0 0 1 5.666 0c2.749.495 5.315 1.976 10.447 4.94l16.741 9.665c5.132 2.963 7.699 4.444 9.501 6.577a16.001 16.001 0 0 1 2.833 4.908c.946 2.627.946 5.59.946 11.516v19.332c0 5.926 0 8.889-.946 11.516a16.001 16.001 0 0 1-2.833 4.908c-1.802 2.133-4.369 3.614-9.5 6.577L63.28 92.333c-5.132 2.963-7.698 4.444-10.447 4.939a15.999 15.999 0 0 1-5.666 0c-2.749-.495-5.315-1.976-10.447-4.94l-16.741-9.665c-5.132-2.963-7.699-4.444-9.501-6.577a16 16 0 0 1-2.833-4.908c-.946-2.627-.946-5.59-.946-11.516V40.334c0-5.926 0-8.889.946-11.516a16 16 0 0 1 2.833-4.908c1.802-2.133 4.369-3.614 9.5-6.577L36.72 7.667Z"/><g clip-path="url(#b)"><path fill="#fff" d="m73.753 61.974-7.924 8.278c-.172.18-.38.323-.612.421a1.882 1.882 0 0 1-.734.149H26.92a.938.938 0 0 1-.505-.147.902.902 0 0 1-.339-.392.875.875 0 0 1 .171-.969l7.93-8.278c.172-.18.38-.323.61-.42.231-.099.48-.15.732-.15H73.08c.18 0 .355.05.505.147.15.095.267.232.339.392a.877.877 0 0 1-.171.968Zm-7.924-16.671a1.842 1.842 0 0 0-.612-.422 1.882 1.882 0 0 0-.734-.148H26.92a.938.938 0 0 0-.505.147.903.903 0 0 0-.339.392.875.875 0 0 0 .171.969l7.93 8.278c.172.18.38.323.61.42.231.099.48.15.732.15H73.08c.18 0 .355-.051.505-.147a.907.907 0 0 0 .339-.392.877.877 0 0 0-.171-.969l-7.924-8.279Zm-38.91-5.947h37.564c.252 0 .502-.05.734-.148.231-.099.44-.242.612-.422l7.924-8.278a.877.877 0 0 0 .171-.969.906.906 0 0 0-.34-.392.938.938 0 0 0-.504-.147H35.52c-.253 0-.502.051-.733.15-.23.097-.438.24-.61.42l-7.928 8.278a.875.875 0 0 0-.172.968c.072.16.19.296.34.392.149.096.324.148.503.148Z"/></g><defs><linearGradient id="a" x1="8.441" x2="100.854" y1="102.383" y2="9.211" gradientUnits="userSpaceOnUse"><stop offset=".08" stop-color="#9945FF"/><stop offset=".3" stop-color="#8752F3"/><stop offset=".5" stop-color="#5497D5"/><stop offset=".6" stop-color="#43B4CA"/><stop offset=".72" stop-color="#28E0B9"/><stop offset=".97" stop-color="#19FB9B"/></linearGradient><clipPath id="b"><path fill="#fff" d="M26 29h48v41.822H26z"/></clipPath></defs></svg>
