<svg xmlns="http://www.w3.org/2000/svg" width="100" height="100" fill="none"><path fill="#fff" stroke="#fff" d="m63.03 8.1 16.741 9.666c5.165 2.982 7.636 4.417 9.37 6.467a15.501 15.501 0 0 1 2.744 4.754c.91 2.526.916 5.384.916 11.347v19.332c0 5.963-.007 8.821-.916 11.347a15.501 15.501 0 0 1-2.745 4.754c-1.733 2.05-4.204 3.486-9.369 6.467L63.03 91.9c-5.165 2.981-7.643 4.404-10.285 4.88a15.501 15.501 0 0 1-5.49 0c-2.642-.476-5.12-1.898-10.285-4.88l-16.741-9.666c-5.165-2.981-7.636-4.417-9.37-6.467a15.5 15.5 0 0 1-2.744-4.754c-.91-2.526-.916-5.384-.916-11.347V40.334c0-5.963.007-8.821.916-11.347a15.5 15.5 0 0 1 2.745-4.754c1.733-2.05 4.204-3.486 9.369-6.467L36.97 8.1c5.165-2.982 7.643-4.404 10.285-4.88a15.5 15.5 0 0 1 5.49 0c2.642.476 5.12 1.898 10.285 4.88Z"/><g clip-path="url(#a)"><path fill="#FBCC5C" d="M43.895 72.895c9.272 0 16.79-7.517 16.79-16.79 0-9.272-7.518-16.79-16.79-16.79-9.273 0-16.79 7.518-16.79 16.79 0 9.273 7.517 16.79 16.79 16.79Zm0 6.105C31.25 79 21 68.75 21 56.105 21 43.461 31.25 33.21 43.895 33.21c12.644 0 22.895 10.251 22.895 22.895S56.539 79 43.895 79Z"/><path fill="#35D07F" d="M56.106 60.684c9.272 0 16.79-7.517 16.79-16.79 0-9.272-7.518-16.789-16.79-16.789-9.273 0-16.79 7.517-16.79 16.79 0 9.272 7.517 16.79 16.79 16.79Zm0 6.106c-12.644 0-22.895-10.251-22.895-22.895S43.46 21 56.106 21C68.75 21 79 31.25 79 43.895 79 56.539 68.75 66.79 56.106 66.79Z"/><path fill="#5EA33B" d="M56.862 66.79a16.75 16.75 0 0 0 3.33-6.598 16.751 16.751 0 0 0 6.598-3.33 22.81 22.81 0 0 1-1.78 8.148 22.81 22.81 0 0 1-8.148 1.78ZM39.808 39.807a16.75 16.75 0 0 0-6.597 3.33 22.815 22.815 0 0 1 1.78-8.148 22.814 22.814 0 0 1 8.148-1.78 16.752 16.752 0 0 0-3.33 6.598Z"/></g><defs><clipPath id="a"><path fill="#fff" d="M21 21h58v58H21z"/></clipPath></defs></svg>
