<svg xmlns="http://www.w3.org/2000/svg" width="100" height="100" fill="none"><path fill="#E6147A" stroke="#E64D97" d="m63.03 8.1 16.741 9.666c5.165 2.982 7.636 4.417 9.37 6.467a15.501 15.501 0 0 1 2.744 4.754c.91 2.526.916 5.384.916 11.347v19.332c0 5.963-.007 8.821-.916 11.347a15.501 15.501 0 0 1-2.745 4.754c-1.733 2.05-4.204 3.486-9.369 6.467L63.03 91.9c-5.165 2.981-7.643 4.404-10.285 4.88a15.501 15.501 0 0 1-5.49 0c-2.642-.476-5.12-1.898-10.285-4.88l-16.741-9.666c-5.165-2.981-7.636-4.417-9.37-6.467a15.5 15.5 0 0 1-2.744-4.754c-.91-2.526-.916-5.384-.916-11.347V40.334c0-5.963.007-8.821.916-11.347a15.5 15.5 0 0 1 2.745-4.754c1.733-2.05 4.204-3.486 9.369-6.467L36.97 8.1c5.165-2.982 7.643-4.404 10.285-4.88a15.5 15.5 0 0 1 5.49 0c2.642.476 5.12 1.898 10.285 4.88Z"/><g fill="#fff" clip-path="url(#a)"><path d="M50.007 32.585c5.975 0 10.818-2.818 10.818-6.293S55.982 20 50.006 20c-5.975 0-10.819 2.817-10.819 6.292 0 3.475 4.844 6.293 10.82 6.293ZM50.007 79.996c5.975 0 10.818-2.817 10.818-6.293 0-3.475-4.843-6.292-10.819-6.292-5.975 0-10.819 2.817-10.819 6.292 0 3.475 4.844 6.293 10.82 6.293ZM34.93 41.294c2.987-5.174 2.968-10.778-.044-12.517-3.012-1.739-7.875 1.046-10.862 6.221-2.988 5.174-2.968 10.779.043 12.518 3.012 1.738 7.875-1.047 10.862-6.221ZM75.984 64.997c2.988-5.174 2.97-10.778-.04-12.515-3.009-1.738-7.87 1.049-10.858 6.223-2.987 5.175-2.97 10.778.04 12.515 3.01 1.738 7.87-1.048 10.858-6.223ZM34.888 71.219c3.012-1.739 3.03-7.343.043-12.518-2.987-5.174-7.85-7.96-10.862-6.22-3.011 1.738-3.03 7.342-.043 12.517 2.987 5.174 7.85 7.96 10.862 6.22ZM75.948 47.517c3.01-1.738 3.027-7.341.04-12.516-2.988-5.174-7.85-7.96-10.86-6.223-3.009 1.738-3.026 7.341-.039 12.516 2.988 5.174 7.85 7.96 10.859 6.223Z"/></g><defs><clipPath id="a"><path fill="#fff" d="M21.8 20h56.418v60H21.8z"/></clipPath></defs></svg>
