<svg xmlns="http://www.w3.org/2000/svg" width="100" height="100" fill="none"><path fill="#B7B9C7" d="M36.72 7.667c5.132-2.963 7.698-4.444 10.447-4.939a16 16 0 0 1 5.666 0c2.749.495 5.315 1.976 10.447 4.94l16.741 9.665c5.132 2.963 7.699 4.444 9.501 6.577a16.001 16.001 0 0 1 2.833 4.908c.946 2.627.946 5.59.946 11.516v19.332c0 5.926 0 8.889-.946 11.516a16.001 16.001 0 0 1-2.833 4.908c-1.802 2.133-4.369 3.614-9.5 6.577L63.28 92.333c-5.132 2.963-7.698 4.444-10.447 4.939a15.999 15.999 0 0 1-5.666 0c-2.749-.495-5.315-1.976-10.447-4.94l-16.741-9.665c-5.132-2.963-7.699-4.444-9.501-6.577a16 16 0 0 1-2.833-4.908c-.946-2.627-.946-5.59-.946-11.516V40.334c0-5.926 0-8.889.946-11.516a16 16 0 0 1 2.833-4.908c1.802-2.133 4.369-3.614 9.5-6.577L36.72 7.667Z"/><path fill="#2F3146" fill-rule="evenodd" d="M50 14c19.882 0 36 16.118 36 36S69.882 86 50 86 14 69.882 14 50s16.118-36 36-36Z" clip-rule="evenodd"/><path fill="#1C1E34" fill-rule="evenodd" d="M49.93 29.231c11.47 0 20.77 9.299 20.77 20.77 0 11.47-9.3 20.768-20.77 20.768-11.47 0-20.769-9.298-20.769-20.769 0-11.47 9.299-20.769 20.77-20.769Z" clip-rule="evenodd"/><path fill="#70738E" fill-rule="evenodd" d="M50.566 20.158c-.286-.263-.434-.268-.459-.268-.024 0-.172.005-.458.268-.294.27-.645.736-1.023 1.455-.754 1.436-1.476 3.606-2.099 6.405-.7 3.149-1.253 6.997-1.602 11.305 1.685.816 3.419 1.702 5.182 2.654a131.179 131.179 0 0 1 5.183-2.654c-.349-4.308-.902-8.156-1.602-11.305-.623-2.8-1.345-4.97-2.1-6.405-.378-.719-.729-1.185-1.022-1.455Zm-1.934 22.627a129.603 129.603 0 0 0-3.82-1.95 129.117 129.117 0 0 0-.22 4.281 143.104 143.104 0 0 1 4.04-2.33Zm-5.067-4.11c1.011-11.812 3.56-20.194 6.542-20.194 2.983 0 5.531 8.381 6.543 20.194 10.742-5.03 19.279-7.016 20.77-4.434 1.492 2.581-4.497 8.977-14.228 15.76 9.73 6.781 15.72 13.177 14.229 15.759-1.492 2.582-10.03.596-20.771-4.435-1.012 11.813-3.56 20.195-6.543 20.195s-5.53-8.382-6.542-20.195c-10.743 5.03-19.28 7.017-20.772 4.435-1.491-2.582 4.498-8.978 14.229-15.76-9.73-6.782-15.72-13.178-14.229-15.76 1.492-2.581 10.03-.595 20.772 4.435Zm-5.302 10.472c-3.559-2.456-6.617-4.86-8.995-7.04-2.116-1.939-3.635-3.649-4.501-5.02-.435-.687-.663-1.223-.75-1.612-.085-.379-.016-.509-.004-.53.012-.02.09-.146.462-.262.38-.119.96-.19 1.773-.157 1.621.064 3.863.524 6.6 1.385 3.079.969 6.69 2.414 10.598 4.266-.136 1.866-.234 3.81-.29 5.811a131.068 131.068 0 0 0-4.893 3.159Zm0 1.707c-3.559 2.456-6.617 4.859-8.995 7.04-2.116 1.938-3.635 3.648-4.501 5.02-.435.686-.663 1.223-.75 1.612-.085.378-.016.508-.004.529.012.02.09.146.462.262.38.12.96.19 1.773.158 1.621-.065 3.863-.525 6.6-1.386 3.079-.968 6.69-2.414 10.598-4.265-.136-1.867-.234-3.81-.29-5.812a131.196 131.196 0 0 1-4.893-3.158Zm4.855 1.477a129.795 129.795 0 0 1-3.601-2.33 129.566 129.566 0 0 1 3.6-2.332 143.574 143.574 0 0 0 0 4.662Zm1.426.879a141.141 141.141 0 0 1 0-6.42 141.985 141.985 0 0 1 5.563-3.21 141.982 141.982 0 0 1 5.564 3.211 141.074 141.074 0 0 1 0 6.418 140.004 140.004 0 0 1-5.564 3.21 141.198 141.198 0 0 1-5.563-3.21Zm.048 1.674c.052 1.465.125 2.895.22 4.281 1.25-.611 2.525-1.262 3.82-1.95a144.754 144.754 0 0 1-4.04-2.33Zm5.515 3.14a131.283 131.283 0 0 1-5.182 2.654c.349 4.307.902 8.156 1.602 11.304.623 2.8 1.345 4.97 2.1 6.405.377.72.728 1.186 1.022 1.456.286.263.434.268.458.268.025 0 .173-.005.459-.268.293-.27.644-.737 1.022-1.456.755-1.435 1.477-3.605 2.1-6.405.7-3.148 1.253-6.996 1.602-11.304a131.049 131.049 0 0 1-5.183-2.655Zm6.662 1.8c3.907 1.852 7.518 3.297 10.596 4.265 2.738.861 4.98 1.321 6.601 1.386.813.032 1.392-.039 1.773-.158.372-.116.45-.241.462-.262.012-.02.081-.15-.004-.53-.087-.388-.316-.925-.75-1.612-.866-1.37-2.386-3.08-4.5-5.02-2.38-2.18-5.438-4.583-8.996-7.04a131.564 131.564 0 0 1-4.891 3.158 131.147 131.147 0 0 1-.291 5.813Zm5.182-10.677c3.558-2.456 6.617-4.86 8.995-7.04 2.115-1.939 3.635-3.649 4.501-5.02.434-.687.663-1.223.75-1.612.085-.38.016-.509.004-.53-.013-.02-.09-.146-.462-.262-.38-.119-.96-.19-1.773-.157-1.621.064-3.863.524-6.6 1.385-3.079.969-6.69 2.414-10.597 4.265.136 1.867.234 3.81.29 5.813a131.307 131.307 0 0 1 4.892 3.158Zm-4.854-1.477c1.244.776 2.445 1.555 3.6 2.33a129.284 129.284 0 0 1-3.6 2.33 142.377 142.377 0 0 0 0-4.66Zm-1.474-2.553a128.902 128.902 0 0 0-.22-4.282c-1.25.611-2.526 1.262-3.82 1.95a144.3 144.3 0 0 1 4.04 2.332Zm-.22 14.049a129.417 129.417 0 0 1-3.82-1.95 145.318 145.318 0 0 0 4.04-2.332 128.895 128.895 0 0 1-.22 4.282Z" clip-rule="evenodd"/><path fill="#B7B9C7" fill-rule="evenodd" d="M29.96 41.173a2.217 2.217 0 1 1 0 4.434 2.217 2.217 0 0 1 0-4.434ZM65.187 33.58a2.218 2.218 0 1 1 0 4.434 2.218 2.218 0 0 1 0-4.435ZM45.64 68.385a2.217 2.217 0 1 1 .001 4.434 2.217 2.217 0 0 1 0-4.434ZM49.984 46.229a3.754 3.754 0 1 1 0 7.509 3.754 3.754 0 0 1 0-7.509Z" clip-rule="evenodd"/></svg>
