<svg xmlns="http://www.w3.org/2000/svg" width="100" height="100" fill="none"><path fill="#793EE0" d="M36.72 7.667c5.132-2.963 7.698-4.444 10.447-4.939a16 16 0 0 1 5.666 0c2.749.495 5.315 1.976 10.447 4.94l16.741 9.665c5.132 2.963 7.699 4.444 9.501 6.577a16.001 16.001 0 0 1 2.833 4.908c.946 2.627.946 5.59.946 11.516v19.332c0 5.926 0 8.889-.946 11.516a16.001 16.001 0 0 1-2.833 4.908c-1.802 2.133-4.369 3.614-9.5 6.577L63.28 92.333c-5.132 2.963-7.698 4.444-10.447 4.939a15.999 15.999 0 0 1-5.666 0c-2.749-.495-5.315-1.976-10.447-4.94l-16.741-9.665c-5.132-2.963-7.699-4.444-9.501-6.577a16 16 0 0 1-2.833-4.908c-.946-2.627-.946-5.59-.946-11.516V40.334c0-5.926 0-8.889.946-11.516a16 16 0 0 1 2.833-4.908c1.802-2.133 4.369-3.614 9.5-6.577L36.72 7.667Z"/><g clip-path="url(#a)"><path fill="#7B3FE4" d="M50 90c22.091 0 40-17.909 40-40S72.091 10 50 10 10 27.909 10 50s17.909 40 40 40Z"/><path fill="#fff" d="M76.666 50.934V63a4.36 4.36 0 0 1-2.133 3.722l-10.417 6.02a4.155 4.155 0 0 1-4.266 0l-10.417-6.02a4.36 4.36 0 0 1-2.133-3.721v-3.388l5.333-3.106v5.887l9.333 5.436 9.334-5.436V51.548l-9.334-5.436L40.1 58.825a4.334 4.334 0 0 1-4.267 0l-10.417-6.046a4.36 4.36 0 0 1-2.083-3.717V36.992a4.36 4.36 0 0 1 2.133-3.721l10.417-6.022a4.193 4.193 0 0 1 4.267 0l10.416 6.022a4.36 4.36 0 0 1 2.133 3.721v3.387l-5.366 3.086v-5.854L38 32.176l-9.334 5.436v10.834L38 53.882 59.866 41.17a4.334 4.334 0 0 1 4.267 0l10.417 6.046a4.343 4.343 0 0 1 2.116 3.718Z"/></g><defs><clipPath id="a"><path fill="#fff" d="M10 10h80v80H10z"/></clipPath></defs></svg>
