<svg xmlns="http://www.w3.org/2000/svg" width="28" height="28" fill="none"><rect width="28" height="28" fill="#3396FF" rx="14"/><g clip-path="url(#a)"><path fill="#fff" d="M3.938 18.918c0 .479.39.868.86.868h18.403c.472 0 .861-.39.861-.868a.874.874 0 0 0-.86-.875h-1.45v-8.06c0-1.066-.581-1.627-1.64-1.627H7.888c-1.019 0-1.641.561-1.641 1.627v8.06h-1.45a.874.874 0 0 0-.86.875Zm3.65-.875v-7.711c0-.43.219-.636.642-.636h11.54c.43 0 .642.205.642.636v7.711H7.588Z"/></g><defs><clipPath id="a"><path fill="#fff" d="M2 2h24v24H2z"/></clipPath></defs></svg>
