<svg xmlns="http://www.w3.org/2000/svg" width="28" height="28" fill="none"><rect width="28" height="28" fill="#3396FF" rx="14"/><g clip-path="url(#a)"><path fill="#fff" d="M5.981 18.932H12.1v-1.306H6.057c-.452 0-.657-.185-.657-.656V9.245c0-.472.205-.656.657-.656h13.446c.451 0 .656.184.656.656v6.05h1.306V9.17c0-1.265-.643-1.887-1.887-1.887H5.981c-1.244 0-1.886.622-1.886 1.887v7.875c0 1.265.642 1.887 1.886 1.887Zm8.716 3.13h7.677c.998 0 1.524-.526 1.524-1.538v-2.618c0-1.018-.526-1.545-1.524-1.545h-7.677c-1.018 0-1.531.527-1.531 1.518v2.645c0 1.012.513 1.538 1.531 1.538Zm6.795-2.406a.853.853 0 1 1 0-1.709c.465 0 .848.383.848.848a.86.86 0 0 1-.848.861ZM9.29 21.317h2.905c-.082-.314-.095-.67-.095-1.237H9.29a.619.619 0 0 0 0 1.237Z"/></g><defs><clipPath id="a"><path fill="#fff" d="M2 2h24v24H2z"/></clipPath></defs></svg>
