<svg xmlns="http://www.w3.org/2000/svg" width="28" height="28" fill="none"><rect width="28" height="28" fill="#3396FF" rx="14"/><g clip-path="url(#a)"><path fill="#fff" d="M11.327 21.536H16.7c1.162 0 1.935-.759 1.935-1.887V8.466c0-1.128-.773-1.887-1.935-1.887h-5.373c-1.176 0-1.969.759-1.969 1.887v11.183c0 1.128.793 1.887 1.97 1.887Zm.226-1.374c-.54 0-.855-.3-.855-.82V8.773c0-.52.315-.813.855-.813h.902c.11 0 .164.055.164.164v.178c0 .294.191.492.492.492h1.784a.466.466 0 0 0 .493-.492v-.178c0-.11.054-.164.164-.164h.895c.54 0 .855.294.855.813v10.569c0 .52-.315.82-.855.82h-4.894Zm.977-.54h2.947a.327.327 0 0 0 .341-.342c0-.212-.143-.348-.341-.348H12.53a.334.334 0 0 0-.348.348c0 .205.15.342.348.342Z"/></g><defs><clipPath id="a"><path fill="#fff" d="M2 2h24v24H2z"/></clipPath></defs></svg>
